ATTENTION************************************                                                        It appears that the local station these are broadcast from covered up one of the three parts with a telethon, with no plans to rebroadcast the episode.	                                                             This is from Masterpiece Classic.                                                                      

                                                                                                    

The intro,credits,prologue,extras and next time are in separate files. 

 										

													

Enjoy and please share.										

													

													

													

		

********************************************************************************			

													

											

Masterpiece_Classic_Sense_And_Sensibility_720p.hdtv.x264-20110630_TTL.mkv
Format                           : Matroska
File size                        : 1.99 GiB
Duration                         : 1h 21mn
Overall bit rate                 : 3 472 Kbps
Movie name                       : Masterpiece_Classic_Sense_And_Sensibility_720p_20110630_TTL.mpg
Writing application              : SUPER(C)   
Writing library                  : SUPER(C)   

Video
ID                               : 1
Format                           : AVC
Format/Info                      : Advanced Video Codec
Format profile                   : Baseline@L1.3
Format settings, CABAC           : No
Format settings, ReFrames        : 1 frame
Muxing mode                      : Container profile=Unknown@1.3
Codec ID                         : V_MPEG4/ISO/AVC
Duration                         : 1h 21mn
Bit rate                         : 3 147 Kbps
Width                            : 1 280 pixels
Height                           : 720 pixels
Display aspect ratio             : 16:9
Frame rate                       : 29.970 fps
Color space                      : YUV
Chroma subsampling               : 4:2:0
Bit depth                        : 8 bits
Scan type                        : Progressive
Bits/(Pixel*Frame)               : 0.114
Stream size                      : 1.80 GiB (91%)

Audio
ID                               : 2
Format                           : AC-3
Format/Info                      : Audio Coding 3
Mode extension                   : CM (complete main)
Codec ID                         : A_AC3
Duration                         : 1h 21mn
Bit rate mode                    : Constant
Bit rate                         : 256 Kbps
Channel(s)                       : 2 channels
Channel positions                : Front: L R
Sampling rate                    : 48.0 KHz
Bit depth                        : 16 bits
Stream size                      : 150 MiB (7%)